name pl05_filtered_grf.mot
datacolumns 37
datarows 10
range 1.519500 1.524000
endheader
time	1_ground_force_vx	1_ground_force_vy	1_ground_force_vz	1_ground_force_px	1_ground_force_py	1_ground_force_pz	1_ground_torque_x	1_ground_torque_y	1_ground_torque_z	2_ground_force_vx	2_ground_force_vy	2_ground_force_vz	2_ground_force_px	2_ground_force_py	2_ground_force_pz	2_ground_torque_x	2_ground_torque_y	2_ground_torque_z	3_ground_force_vx	3_ground_force_vy	3_ground_force_vz	3_ground_force_px	3_ground_force_py	3_ground_force_pz	3_ground_torque_x	3_ground_torque_y	3_ground_torque_z	4_ground_force_vx	4_ground_force_vy	4_ground_force_vz	4_ground_force_px	4_ground_force_py	4_ground_force_pz	4_ground_torque_x	4_ground_torque_y	4_ground_torque_z
            1.519500	          -44.644974	          392.504788	           14.637576	            0.179376	            0.000000	            0.228360	           -1.091540	            9.596479	            0.357879	           41.450492	          312.567252	            4.897524	           -0.204744	            0.000000	            0.241694	            0.860035	            6.485296	            0.101616	            0.398814	            0.063831	           -1.379691	            0.412830	            1.262871	            1.874397	            0.032552	           -0.029380	            0.016441	           -1.148605	           -1.939640	           -3.113883	           -0.353851	            1.256239	            1.901694	            0.031681	           -0.010645	            0.038104
            1.520000	          -44.698674	          392.083510	           14.831718	            0.179375	            0.000000	            0.228390	           -1.093141	            9.588706	            0.362721	           41.460280	          312.483648	            4.920614	           -0.204768	            0.000000	            0.241733	            0.860753	            6.487445	            0.102156	            0.387972	            0.064382	           -1.393783	            0.412826	            1.262871	            1.874398	            0.032551	           -0.029106	            0.016326	           -1.131818	           -1.946387	           -3.112113	           -0.353854	            1.256238	            1.901690	            0.031680	           -0.010769	            0.038071
            1.520500	          -44.752460	          391.659421	           15.021287	            0.179374	            0.000000	            0.228421	           -1.094749	            9.580897	            0.367455	           41.469717	          312.399761	            4.942711	           -0.204793	            0.000000	            0.241772	            0.861445	            6.489442	            0.102674	            0.376904	            0.064981	           -1.407548	            0.412822	            1.262870	            1.874397	            0.032528	           -0.028831	            0.016220	           -1.114589	           -1.953069	           -3.110143	           -0.353857	            1.256237	            1.901686	            0.031676	           -0.010900	            0.038041
            1.521000	          -44.806314	          391.232726	           15.206169	            0.179372	            0.000000	            0.228451	           -1.096363	            9.573054	            0.372079	           41.478819	          312.315396	            4.963807	           -0.204817	            0.000000	            0.241810	            0.862113	            6.491290	            0.103170	            0.365660	            0.065635	           -1.420956	            0.412819	            1.262869	            1.874396	            0.032484	           -0.028557	            0.016123	           -1.096950	           -1.959649	           -3.107985	           -0.353859	            1.256237	            1.901681	            0.031671	           -0.011040	            0.038013
            1.521500	          -44.860223	          390.803635	           15.386255	            0.179371	            0.000000	            0.228482	           -1.097984	            9.565179	            0.376589	           41.487602	          312.230358	            4.983895	           -0.204842	            0.000000	            0.241848	            0.862756	            6.492990	            0.103643	            0.354299	            0.066349	           -1.433974	            0.412816	            1.262867	            1.874396	            0.032418	           -0.028283	            0.016035	           -1.078945	           -1.966110	           -3.105638	           -0.353862	            1.256236	            1.901676	            0.031664	           -0.011188	            0.037986
            1.522000	          -44.914172	          390.372360	           15.561445	            0.179370	            0.000000	            0.228514	           -1.099609	            9.557275	            0.380982	           41.496084	          312.144448	            5.002970	           -0.204866	            0.000000	            0.241887	            0.863376	            6.494543	            0.104093	            0.342884	            0.067130	           -1.446568	            0.412813	            1.262866	            1.874395	            0.032333	           -0.028010	            0.015957	           -1.060620	           -1.972436	           -3.103099	           -0.353864	            1.256235	            1.901672	            0.031655	           -0.011345	            0.037962
            1.522500	          -44.968150	          389.939121	           15.731642	            0.179369	            0.000000	            0.228545	           -1.101239	            9.549343	            0.385257	           41.504283	          312.057464	            5.021029	           -0.204890	            0.000000	            0.241925	            0.863975	            6.495953	            0.104520	            0.331476	            0.067980	           -1.458707	            0.412809	            1.262865	            1.874394	            0.032228	           -0.027739	            0.015889	           -1.042024	           -1.978609	           -3.100367	           -0.353867	            1.256234	            1.901667	            0.031643	           -0.011510	            0.037940
            1.523000	          -45.022148	          389.504135	           15.896756	            0.179368	            0.000000	            0.228577	           -1.102873	            9.541386	            0.389411	           41.512218	          311.969205	            5.038067	           -0.204915	            0.000000	            0.241963	            0.864554	            6.497222	            0.104925	            0.320148	            0.068906	           -1.470358	            0.412807	            1.262864	            1.874392	            0.032105	           -0.027468	            0.015831	           -1.023218	           -1.984633	           -3.097420	           -0.353869	            1.256232	            1.901661	            0.031630	           -0.011684	            0.037919
            1.523500	          -45.076159	          389.067625	           16.056702	            0.179368	            0.000000	            0.228610	           -1.104511	            9.533406	            0.393441	           41.519910	          311.879466	            5.054085	           -0.204939	            0.000000	            0.242001	            0.865113	            6.498352	            0.105307	            0.308951	            0.069905	           -1.481493	            0.412805	            1.262862	            1.874390	            0.031964	           -0.027199	            0.015785	           -1.004243	           -1.990470	           -3.094275	           -0.353871	            1.256231	            1.901655	            0.031615	           -0.011867	            0.037900
            1.524000	          -45.130175	          388.629813	           16.211404	            0.179367	            0.000000	            0.228643	           -1.106151	            9.525404	            0.397345	           41.527380	          311.788042	            5.069085	           -0.204962	            0.000000	            0.242040	            0.865655	            6.499348	            0.105667	            0.297945	            0.070978	           -1.492084	            0.412803	            1.262861	            1.874387	            0.031807	           -0.026931	            0.015749	           -0.985150	           -1.996102	           -3.090928	           -0.353873	            1.256230	            1.901649	            0.031598	           -0.012058	            0.037883
